<?xml version="1.0" standalone="no"?>
<!DOCTYPE svg PUBLIC "-//W3C//DTD SVG 20010904//EN"
 "http://www.w3.org/TR/2001/REC-SVG-20010904/DTD/svg10.dtd">
<svg version="1.0" xmlns="http://www.w3.org/2000/svg"
 width="512.000000pt" height="512.000000pt" viewBox="0 0 512.000000 512.000000"
 preserveAspectRatio="xMidYMid meet">
<metadata>
Created by potrace 1.16, written by Peter Selinger 2001-2019
</metadata>
<g transform="translate(0.000000,512.000000) scale(0.100000,-0.100000)"
fill="#000000" stroke="none">
<path d="M2430 5035 c0 -16 -16 -20 -24 -6 -9 14 -55 1 -49 -15 3 -8 -1 -14
-11 -14 -9 0 -16 4 -16 10 0 17 -28 -1 -33 -22 -5 -17 -11 -19 -32 -14 -16 4
-24 3 -21 -3 3 -5 -7 -17 -22 -27 -91 -59 -184 -163 -227 -254 -9 -19 -23 -47
-31 -62 -8 -14 -14 -34 -14 -43 0 -11 -5 -15 -14 -12 -12 5 -13 -4 -9 -48 5
-45 3 -56 -11 -61 -19 -7 -22 -45 -3 -42 6 2 12 -6 12 -17 0 -11 -6 -19 -12
-18 -7 2 -13 -6 -13 -17 0 -13 5 -18 15 -14 11 5 15 -1 15 -22 0 -28 20 -95
39 -132 38 -76 67 -153 42 -113 -11 17 -123 16 -154 -1 -12 -7 -47 -15 -77
-19 -62 -7 -200 -46 -214 -60 -6 -5 -20 -9 -33 -9 -13 0 -31 -4 -41 -9 -9 -6
-38 -17 -64 -27 -27 -9 -48 -21 -48 -25 0 -5 -9 -9 -21 -9 -22 0 -161 -69
-167 -82 -2 -5 -8 -8 -14 -8 -38 0 -269 -205 -300 -267 -8 -15 -19 -37 -24
-48 -38 -73 -44 -89 -44 -105 0 -10 -4 -22 -10 -25 -7 -4 -10 -442 -10 -1280
l0 -1274 26 -63 c14 -35 36 -83 48 -108 23 -48 171 -205 223 -235 18 -11 33
-23 33 -27 0 -4 5 -8 12 -8 6 0 26 -11 44 -25 18 -14 40 -25 48 -25 9 0 16 -4
16 -10 0 -5 9 -10 19 -10 11 0 23 -4 26 -10 7 -12 54 -34 118 -54 26 -9 66
-25 87 -36 22 -11 50 -20 64 -20 14 0 28 -4 31 -10 3 -5 21 -10 38 -10 18 0
41 -6 52 -14 11 -7 52 -19 90 -26 39 -6 78 -16 87 -21 10 -5 38 -9 64 -9 25 0
73 -7 107 -15 129 -30 256 -37 587 -31 351 6 458 12 477 28 7 5 49 12 93 15
44 3 83 10 86 14 3 5 16 9 29 9 30 0 127 25 154 39 11 6 33 11 50 11 16 0 33
4 36 10 3 5 16 10 29 10 12 0 41 9 64 20 23 11 56 23 72 27 17 3 30 9 30 14 0
5 7 9 15 9 20 0 177 83 255 135 76 51 163 131 212 195 40 52 88 146 88 171 0
10 5 21 10 24 14 9 14 2601 0 2610 -5 3 -10 15 -10 27 0 51 -113 216 -192 280
-68 55 -187 138 -199 138 -6 0 -25 11 -43 25 -18 14 -40 25 -49 25 -10 0 -17
5 -17 10 0 6 -13 10 -29 10 -16 0 -34 7 -41 15 -7 8 -19 15 -26 15 -8 0 -23 5
-34 10 -11 6 -29 15 -40 20 -11 6 -33 10 -49 10 -17 0 -32 4 -35 9 -4 5 -32
17 -64 26 -31 9 -71 20 -88 26 -17 5 -49 9 -71 9 -23 0 -43 5 -45 12 -2 6 -31
13 -64 16 -38 2 -63 10 -71 20 -12 14 -13 14 -13 -1 0 -9 -7 -17 -15 -17 -8 0
-15 6 -15 14 0 7 7 19 15 26 8 7 15 21 15 31 0 10 5 21 10 24 6 3 10 17 10 29
0 13 7 29 15 36 8 7 15 23 15 35 0 38 12 85 20 80 14 -8 22 31 14 69 -3 20
-11 34 -17 33 -6 -1 -14 18 -18 43 -7 50 -21 95 -38 128 -47 91 -55 105 -76
132 -11 13 -43 49 -72 78 -29 30 -53 61 -55 70 -2 8 -9 17 -17 20 -8 3 -11 0
-7 -7 10 -15 0 -14 -29 5 -14 9 -22 20 -19 25 3 6 -5 7 -20 3 -22 -5 -26 -3
-26 15 0 21 -14 28 -24 12 -9 -14 -48 0 -42 14 3 8 -6 15 -24 17 -16 3 -31 0
-33 -5 -1 -5 -10 -2 -19 7 -23 23 -248 24 -248 1z m212 -415 c-1 -6 2 -8 9 -5
16 10 78 -26 72 -42 -3 -7 1 -13 10 -13 8 0 22 -11 31 -25 17 -27 22 -85 6
-85 -5 0 -7 -7 -4 -15 4 -8 10 -12 15 -9 5 3 9 -4 9 -16 0 -12 -4 -19 -9 -16
-5 3 -11 0 -14 -8 -3 -8 0 -17 7 -19 23 -9 6 -54 -36 -102 -32 -36 -43 -43
-54 -34 -11 9 -14 7 -14 -8 0 -18 -6 -19 -80 -15 -69 4 -80 2 -80 -12 0 -9 -4
-16 -10 -16 -5 0 -7 7 -3 16 5 14 1 15 -27 9 -27 -6 -32 -5 -27 8 3 9 -2 21
-11 29 -10 8 -13 8 -9 1 4 -6 3 -14 -1 -17 -10 -6 -49 34 -75 76 -20 33 -26
90 -9 96 6 2 12 15 12 29 0 17 -4 23 -13 20 -19 -7 -9 48 15 89 24 41 84 88
103 80 8 -3 15 0 15 7 0 9 24 12 87 10 61 -1 87 -5 85 -13z m-555 -682 c-3 -8
-6 -5 -6 6 -1 11 2 17 5 13 3 -3 4 -12 1 -19z m1028 -42 c28 -4 73 -11 100
-17 28 -6 73 -13 100 -16 28 -3 57 -11 65 -18 8 -7 30 -15 48 -19 79 -15 92
-19 92 -27 0 -5 13 -9 29 -9 16 0 34 -7 41 -15 7 -8 20 -15 30 -15 9 0 32 -7
51 -16 19 -9 54 -26 79 -38 25 -11 47 -23 50 -26 3 -3 19 -12 35 -20 17 -8 39
-23 49 -32 11 -10 23 -18 28 -18 18 0 137 -129 163 -175 37 -68 39 -184 3
-253 -28 -56 -123 -152 -197 -200 -75 -48 -222 -122 -243 -122 -9 0 -19 -4
-23 -10 -3 -5 -33 -17 -66 -26 -33 -9 -62 -21 -65 -25 -3 -5 -18 -9 -34 -9
-16 0 -44 -6 -62 -14 -18 -8 -60 -20 -93 -26 -33 -6 -68 -16 -77 -21 -10 -5
-43 -9 -73 -9 -31 0 -66 -6 -78 -14 -60 -38 -958 -41 -1005 -3 -7 6 -45 14
-85 18 -80 8 -122 16 -152 29 -11 5 -33 11 -50 14 -56 9 -122 28 -188 55 -15
6 -37 11 -47 11 -11 0 -20 4 -20 9 0 5 -14 12 -31 16 -17 4 -56 20 -86 36 -30
16 -59 29 -65 29 -5 0 -24 11 -42 25 -18 14 -38 25 -44 25 -7 0 -12 4 -12 9 0
5 -8 12 -18 15 -10 4 -52 39 -94 79 -55 53 -81 86 -97 126 -22 56 -29 157 -12
189 5 9 15 31 23 49 14 31 111 143 124 143 4 0 25 15 48 33 23 17 61 43 86 56
25 13 52 30 61 37 8 8 21 14 27 14 7 0 34 9 60 21 90 40 107 47 173 68 37 12
76 21 87 21 11 0 25 6 31 14 7 8 35 16 64 19 29 3 75 10 102 16 28 7 73 14
100 18 28 3 56 10 63 15 8 7 12 6 12 -3 0 -12 2 -12 9 0 9 15 31 7 31 -11 0
-6 11 -26 25 -44 14 -18 25 -36 25 -39 0 -4 27 -47 60 -97 33 -51 60 -95 60
-100 0 -4 5 -8 10 -8 6 0 10 -4 10 -10 0 -11 107 -165 159 -227 33 -40 38 -43
86 -43 57 0 69 9 142 112 21 29 41 55 45 56 5 2 8 8 8 13 0 5 27 47 60 93 33
47 60 88 60 91 0 4 16 29 35 55 19 26 35 51 35 54 0 4 15 30 33 59 18 29 37
61 41 72 7 18 8 18 29 -7 16 -19 35 -28 72 -32z m-1926 -1131 c51 -30 100 -55
107 -55 8 0 14 -4 14 -8 0 -5 19 -15 43 -22 23 -8 49 -20 58 -27 8 -7 23 -13
32 -13 10 0 25 -4 35 -8 41 -21 150 -55 187 -60 22 -2 42 -7 45 -11 5 -6 60
-20 170 -42 110 -22 225 -35 551 -59 106 -8 179 -8 275 0 71 7 179 16 239 21
183 16 262 28 405 64 36 9 83 20 105 25 44 9 172 54 182 64 4 3 19 6 33 6 15
0 33 6 39 13 6 8 29 19 51 26 22 6 40 16 40 21 0 6 9 10 20 10 11 0 38 11 60
25 22 14 44 25 50 25 5 0 10 5 10 10 0 6 6 10 13 10 8 0 23 8 35 18 53 45 63
52 69 52 4 0 17 9 29 20 l21 21 -1 -658 -2 -658 -24 -44 c-27 -48 -138 -171
-155 -171 -5 0 -21 -10 -35 -23 -14 -13 -40 -30 -57 -38 -18 -7 -33 -17 -33
-21 0 -5 -4 -8 -10 -8 -5 0 -42 -16 -81 -35 -104 -50 -304 -115 -454 -146 -33
-7 -64 -16 -69 -21 -6 -4 -38 -8 -73 -8 -34 0 -84 -8 -110 -17 -42 -15 -98
-17 -448 -17 -306 0 -405 3 -423 13 -13 7 -62 16 -110 20 -82 8 -152 23 -268
56 -28 8 -60 15 -72 15 -12 0 -22 3 -22 8 0 4 -25 13 -55 20 -30 7 -68 19 -83
27 -15 7 -38 18 -52 23 -198 81 -366 202 -421 302 -38 71 -39 78 -39 739 l0
644 43 -36 c23 -20 84 -61 136 -92z m0 -1654 c92 -51 112 -61 125 -61 9 0 16
-4 16 -8 0 -5 19 -15 43 -22 23 -8 49 -20 58 -27 8 -7 27 -13 41 -13 13 0 27
-3 31 -6 12 -12 179 -64 206 -64 15 0 31 -3 35 -7 7 -8 87 -26 191 -45 353
-62 953 -59 1280 7 44 9 97 19 118 22 21 3 40 10 43 14 3 5 23 9 44 9 21 0 41
3 44 8 2 4 36 16 75 27 39 10 71 23 71 27 0 4 16 8 35 8 19 0 35 4 35 10 0 5
12 13 28 16 15 4 41 15 57 24 17 9 42 20 58 24 15 3 27 11 27 16 0 6 8 10 18
10 9 0 28 9 42 20 14 11 29 20 33 20 5 0 45 27 89 60 l80 61 -3 -205 c-3 -147
-8 -209 -16 -218 -7 -6 -13 -18 -13 -26 0 -29 -139 -181 -166 -182 -6 0 -18
-8 -28 -18 -14 -17 -197 -112 -251 -132 -11 -5 -48 -20 -83 -34 -35 -14 -71
-26 -79 -26 -16 0 -67 -14 -108 -31 -11 -4 -40 -10 -65 -14 -24 -3 -49 -10
-55 -14 -5 -5 -35 -11 -65 -14 -30 -3 -82 -10 -115 -16 -33 -6 -116 -15 -185
-21 -69 -6 -147 -15 -173 -20 -62 -13 -246 -13 -300 0 -23 5 -98 15 -167 20
-69 6 -152 15 -185 21 -33 5 -85 12 -115 15 -30 4 -59 10 -65 14 -5 4 -30 11
-55 14 -25 4 -54 11 -65 15 -43 18 -92 31 -113 31 -12 0 -30 4 -40 10 -26 14
-82 37 -127 51 -22 8 -57 24 -77 36 -21 13 -44 23 -53 23 -8 0 -15 5 -15 10 0
6 -9 10 -19 10 -11 0 -21 3 -23 8 -1 4 -23 20 -47 36 -84 54 -175 144 -196
193 -9 21 -21 46 -26 55 -5 10 -9 105 -9 212 l0 195 78 -57 c42 -31 88 -63
101 -71z"/>
<path d="M1958 3813 c-10 -2 -18 -11 -18 -19 0 -8 -7 -14 -15 -14 -8 0 -15 4
-15 9 0 5 -9 7 -19 4 -12 -3 -17 -11 -14 -19 3 -9 -2 -14 -13 -14 -11 0 -32
-7 -49 -16 -16 -8 -37 -13 -47 -11 -10 3 -16 0 -15 -7 1 -6 -10 -11 -24 -11
-17 0 -25 -4 -22 -11 2 -7 -13 -20 -34 -30 -21 -10 -47 -26 -57 -36 -24 -22
-40 -23 -32 -2 3 8 2 12 -4 9 -6 -3 -10 -13 -10 -22 0 -8 -18 -35 -40 -60 -21
-25 -47 -62 -57 -84 -10 -21 -24 -39 -30 -39 -9 0 -13 -23 -13 -80 0 -57 4
-80 13 -80 6 0 20 -17 29 -38 10 -21 27 -48 38 -60 11 -11 20 -25 20 -29 0 -4
25 -26 55 -48 30 -22 55 -43 55 -47 0 -4 9 -8 20 -8 11 0 20 -4 20 -8 0 -4 22
-16 50 -27 40 -15 47 -22 38 -33 -10 -11 -5 -12 27 -6 33 6 37 5 32 -10 -5
-14 -3 -16 12 -11 25 8 53 -5 47 -21 -3 -8 1 -14 8 -14 8 0 16 5 18 11 2 7 12
7 33 -1 24 -9 27 -13 15 -21 -10 -7 3 -8 43 -3 47 5 57 4 57 -9 0 -18 50 -29
67 -15 17 13 43 3 43 -17 0 -14 13 -16 93 -13 69 2 91 0 90 -9 -2 -10 41 -13
191 -13 170 0 195 2 200 16 6 14 18 16 96 10 76 -6 90 -5 90 7 0 18 68 33 83
18 13 -13 37 -2 30 14 -4 11 7 13 51 10 35 -2 54 0 51 6 -9 14 37 28 57 18 23
-12 25 -12 31 12 5 18 11 20 36 14 26 -5 30 -4 25 9 -4 11 -1 16 10 16 9 0 28
7 42 16 13 9 27 14 31 11 3 -3 20 5 38 18 17 14 36 25 42 25 5 0 20 11 33 25
13 14 27 25 31 25 21 0 129 128 129 152 0 9 9 18 20 21 18 5 20 14 20 91 0 68
-3 86 -14 86 -8 0 -25 17 -37 38 -13 20 -27 39 -31 40 -4 2 -8 8 -8 13 0 9
-27 36 -82 83 -9 8 -28 22 -43 32 -14 9 -24 23 -21 30 6 17 -6 18 -21 3 -14
-14 -36 -2 -30 15 4 9 -3 11 -19 8 -17 -3 -24 0 -24 12 0 12 -6 15 -25 10 -20
-5 -25 -3 -25 14 0 22 -36 37 -43 18 -3 -8 -10 -8 -26 2 -11 6 -32 12 -45 12
-14 0 -28 5 -31 10 -10 16 -55 12 -55 -5 0 -8 -4 -15 -8 -15 -10 0 -32 -45
-32 -65 0 -17 36 -20 45 -5 5 8 11 7 21 -1 7 -6 11 -16 7 -22 -4 -6 7 -7 31
-3 30 6 36 4 36 -10 0 -13 6 -15 35 -10 32 6 35 5 35 -16 0 -17 3 -19 9 -9 11
17 41 8 41 -12 0 -10 8 -13 27 -9 22 4 25 2 20 -13 -6 -13 -3 -16 8 -11 29 11
114 -53 168 -125 23 -30 27 -46 27 -101 0 -46 -4 -69 -15 -78 -8 -7 -15 -18
-15 -25 0 -11 -73 -85 -85 -85 -3 0 -14 -9 -26 -21 -14 -14 -29 -19 -45 -16
-18 3 -24 0 -24 -14 0 -20 -15 -25 -25 -9 -9 15 -25 2 -18 -15 3 -10 -2 -15
-16 -15 -12 0 -21 4 -21 10 0 5 -6 7 -14 4 -8 -3 -12 -12 -9 -20 7 -18 -25
-30 -40 -15 -16 16 -25 14 -23 -6 1 -15 -7 -18 -44 -18 -33 0 -44 -4 -42 -14
2 -11 -7 -12 -48 -7 -35 5 -50 4 -45 -4 9 -14 -45 -34 -59 -20 -17 17 -63 12
-68 -8 -5 -17 -17 -18 -152 -15 -92 2 -146 -1 -146 -7 0 -6 -11 -10 -25 -10
-14 0 -25 5 -25 10 0 6 -18 10 -40 10 -31 0 -40 -4 -40 -17 -1 -17 -2 -16 -15
1 -13 17 -23 18 -125 12 -107 -7 -112 -6 -117 13 -6 23 -51 29 -69 11 -15 -15
-46 -1 -40 17 5 13 -3 14 -54 8 -53 -6 -60 -5 -60 10 0 13 -6 16 -27 12 -33
-6 -53 1 -53 19 0 17 -12 18 -28 2 -14 -14 -45 8 -35 26 4 8 3 8 -6 0 -18 -17
-48 -6 -55 19 -4 16 -8 19 -17 10 -14 -14 -112 36 -105 54 3 7 1 15 -4 18 -4
3 -10 -1 -12 -7 -6 -18 -85 66 -103 108 -17 42 -17 109 1 150 14 32 108 125
140 139 10 4 28 7 38 6 14 -2 17 2 12 14 -5 15 -2 17 26 11 19 -3 28 -2 20 2
-10 7 -10 11 3 22 12 10 19 10 27 2 18 -18 27 -14 21 8 -4 14 0 20 11 20 9 0
16 -8 17 -17 0 -11 3 -13 6 -5 2 6 11 12 19 12 8 0 14 7 14 15 0 8 7 15 15 15
8 0 15 -4 15 -9 0 -5 9 -7 20 -4 11 3 17 9 15 14 -9 14 32 29 65 23 l31 -7
-41 62 c-22 33 -42 60 -43 60 -1 -1 -10 -3 -19 -6z"/>
<path d="M3470 2260 c-8 -5 -26 -10 -40 -10 -14 0 -34 -7 -44 -15 -11 -8 -32
-15 -47 -15 -15 0 -31 -4 -34 -10 -3 -5 -21 -10 -40 -10 -27 0 -34 -5 -42 -27
-4 -16 -7 -148 -5 -295 l3 -268 39 0 c22 0 54 6 72 14 48 20 102 36 121 36 9
0 17 5 17 10 0 6 8 10 19 10 10 0 24 7 31 15 7 8 18 15 25 15 24 0 95 96 95
129 0 11 5 23 10 26 6 3 10 26 10 50 0 24 -4 47 -10 50 -5 3 -10 15 -10 26 0
10 -6 19 -14 19 -25 0 -27 16 -6 43 15 19 20 40 20 89 0 58 -3 67 -31 96 -26
27 -39 32 -78 32 -25 0 -53 -5 -61 -10z m18 -158 c2 -13 -2 -29 -8 -37 -11
-13 -84 -55 -96 -55 -3 0 -4 21 -2 47 3 44 5 46 32 48 16 0 32 7 34 13 7 21
37 9 40 -16z m6 -207 c3 -8 3 -28 0 -45 -5 -22 -17 -34 -50 -49 -62 -30 -65
-28 -62 32 3 52 3 52 38 55 19 2 39 8 45 13 13 13 22 11 29 -6z"/>
<path d="M1522 2107 c-12 -13 -22 -28 -22 -34 0 -6 -7 -16 -15 -23 -17 -14
-21 -138 -6 -168 6 -9 22 -42 36 -73 30 -64 50 -86 118 -123 34 -19 62 -26
100 -26 46 0 58 4 85 31 25 24 32 40 32 69 0 45 -24 65 -93 75 -43 7 -47 6
-47 -14 0 -15 -6 -21 -21 -21 -24 0 -49 22 -49 44 0 8 -4 18 -10 21 -5 3 -10
30 -10 60 0 46 3 55 21 60 32 11 69 -13 69 -45 0 -33 17 -50 51 -50 15 0 31
-4 34 -10 3 -5 17 -10 30 -10 19 0 24 -6 29 -37 15 -100 21 -120 45 -153 40
-54 78 -90 95 -90 8 0 18 -4 21 -10 3 -5 40 -10 82 -10 66 0 81 3 109 25 49
38 64 76 64 168 0 77 -15 147 -32 147 -4 0 -8 4 -8 9 0 14 -60 71 -74 71 -6 0
-16 4 -22 10 -5 5 -44 13 -85 16 -59 5 -83 3 -110 -10 -35 -17 -69 -64 -69
-96 0 -10 -4 -22 -10 -25 -6 -4 -10 11 -10 39 0 74 -45 139 -127 183 -63 33
-170 33 -201 0z m563 -229 c14 -6 25 -19 25 -29 0 -10 5 -21 10 -24 15 -10 12
-78 -5 -103 -10 -14 -25 -21 -41 -20 -42 4 -56 30 -56 102 0 89 10 100 67 74z"/>
<path d="M2782 2117 l-42 -11 2 -290 3 -291 40 2 c130 8 174 16 223 40 55 28
132 96 132 118 0 7 7 18 15 25 8 7 15 23 15 36 0 12 5 26 10 29 6 3 10 48 10
100 0 52 -4 97 -10 100 -5 3 -10 14 -10 23 0 25 -78 112 -101 112 -10 0 -19 5
-19 10 0 13 -211 10 -268 -3z m224 -146 c41 -55 15 -262 -34 -277 -15 -5 -48
-19 -74 -32 -5 -2 -8 73 -8 166 l0 169 53 -5 c30 -3 57 -11 63 -21z"/>
<path d="M2297 1983 c-2 -5 -2 -142 1 -306 l4 -298 77 3 76 3 0 77 c0 68 2 75
17 67 9 -5 41 -9 70 -9 50 0 55 3 93 44 61 66 62 69 69 122 7 62 7 60 -2 119
-9 62 -45 126 -83 149 -22 13 -49 17 -110 15 -49 -1 -85 3 -92 10 -12 12 -113
15 -120 4z m230 -155 c19 -18 23 -32 23 -83 0 -70 -10 -85 -57 -85 l-33 0 0
83 c0 107 19 130 67 85z"/>
</g>
</svg>
